<?xml version="1.0" encoding="iso-8859-1"?>
<!-- Uploaded to: SVG Repo, www.svgrepo.com, Generator: SVG Repo Mixer Tools -->
<svg version="1.1" id="Layer_1" xmlns="http://www.w3.org/2000/svg" xmlns:xlink="http://www.w3.org/1999/xlink" 
	 viewBox="0 0 450 450" xml:space="preserve">
<g id="XMLID_366_">
	<path id="XMLID_394_" style="fill:#F3F3F2;" d="M15,257.5c30,0,170-150,210-220c40,70,180,220,210,220H15z"/>
	<g id="XMLID_398_">
		<g id="XMLID_396_">
			<rect id="XMLID_397_" x="210" y="27.5" style="fill:#D9CCBC;" width="30" height="300"/>
		</g>
	</g>
	<polyline id="XMLID_401_" style="fill:#BFA993;" points="95,407.5 35,317.5 415,317.5 355,407.5 	"/>
	<polygon id="XMLID_402_" style="fill:#B29A7E;" points="35,317.5 95,407.5 135,407.5 75,317.5 	"/>
	<polygon id="XMLID_403_" style="fill:#D9CCBC;" points="375,317.5 315,407.5 355,407.5 415,317.5 	"/>
	<polygon id="XMLID_1094_" style="fill:#BFA993;" points="225,317.5 225,27.5 210,27.5 210,317.5 75,317.5 135,407.5 315,407.5 
		375,317.5 	"/>
	<path id="XMLID_405_" style="fill:#98C8ED;" d="M420,377.5c0,8.272-6.729,15-15,15s-15-6.728-15-15h-30c0,8.272-6.729,15-15,15
		s-15-6.728-15-15h-30c0,8.272-6.729,15-15,15s-15-6.728-15-15h-30c0,8.272-6.729,15-15,15s-15-6.728-15-15h-30
		c0,8.272-6.729,15-15,15s-15-6.728-15-15h-30c0,8.272-6.729,15-15,15s-15-6.728-15-15H60c0,8.272-6.729,15-15,15s-15-6.728-15-15H0
		c0,24.814,20.187,45,45,45c11.517,0,22.032-4.353,30-11.495c7.968,7.142,18.483,11.495,30,11.495s22.032-4.353,30-11.495
		c7.968,7.142,18.483,11.495,30,11.495s22.032-4.353,30-11.495c7.968,7.142,18.483,11.495,30,11.495s22.032-4.353,30-11.495
		c7.968,7.142,18.483,11.495,30,11.495s22.032-4.353,30-11.495c7.968,7.142,18.483,11.495,30,11.495s22.032-4.353,30-11.495
		c7.968,7.142,18.483,11.495,30,11.495c24.813,0,45-20.186,45-45H420z"/>
</g>
</svg>